REM DIRINDEX 1\2,1\3
REM DIRNAME folder01,folder02,folder03
TITLE ""
FILE "2401-2420.mp3" MP3
  TRACK 01 AUDIO
    TITLE "0:"
    INDEX 01 00:00:00
  TRACK 02 AUDIO
    TITLE "2:cjc039_3801"
    INDEX 01 00:00:27
  TRACK 03 AUDIO
    TITLE "0:"
    INDEX 01 00:01:28
  TRACK 04 AUDIO
    TITLE "3:cjc039_3802"
    INDEX 01 00:02:08
  TRACK 05 AUDIO
    TITLE "0:"
    INDEX 01 00:04:68
  TRACK 06 AUDIO
    TITLE "2:cjc039_3803"
    INDEX 01 00:06:39
  TRACK 07 AUDIO
    TITLE "0:"
    INDEX 01 00:08:01
  TRACK 08 AUDIO
    TITLE "3:cjc039_3804"
    INDEX 01 00:08:44
  TRACK 09 AUDIO
    TITLE "0:"
    INDEX 01 00:12:20
  TRACK 10 AUDIO
    TITLE "2:cjc039_3805"
    INDEX 01 00:13:69
  TRACK 11 AUDIO
    TITLE "0:"
    INDEX 01 00:15:15
  TRACK 12 AUDIO
    TITLE "3:cjc039_3806"
    INDEX 01 00:15:66
  TRACK 13 AUDIO
    TITLE "0:"
    INDEX 01 00:19:48
  TRACK 14 AUDIO
    TITLE "2:cjc039_3807"
    INDEX 01 00:21:17
  TRACK 15 AUDIO
    TITLE "0:"
    INDEX 01 00:22:56
  TRACK 16 AUDIO
    TITLE "3:cjc039_3808"
    INDEX 01 00:23:28
  TRACK 17 AUDIO
    TITLE "0:"
    INDEX 01 00:27:08
  TRACK 18 AUDIO
    TITLE "2:cjc039_3809"
    INDEX 01 00:28:60
  TRACK 19 AUDIO
    TITLE "0:"
    INDEX 01 00:29:70
  TRACK 20 AUDIO
    TITLE "3:cjc039_3810"
    INDEX 01 00:30:44
  TRACK 21 AUDIO
    TITLE "0:"
    INDEX 01 00:34:32
  TRACK 22 AUDIO
    TITLE "2:cjc039_3811"
    INDEX 01 00:36:05
  TRACK 23 AUDIO
    TITLE "0:"
    INDEX 01 00:37:46
  TRACK 24 AUDIO
    TITLE "3:cjc039_3812"
    INDEX 01 00:38:20
  TRACK 25 AUDIO
    TITLE "0:"
    INDEX 01 00:41:47
  TRACK 26 AUDIO
    TITLE "2:cjc039_3813"
    INDEX 01 00:43:21
  TRACK 27 AUDIO
    TITLE "0:"
    INDEX 01 00:44:11
  TRACK 28 AUDIO
    TITLE "3:cjc039_3814"
    INDEX 01 00:44:69
  TRACK 29 AUDIO
    TITLE "0:"
    INDEX 01 00:47:38
  TRACK 30 AUDIO
    TITLE "2:cjc039_3815"
    INDEX 01 00:49:14
  TRACK 31 AUDIO
    TITLE "0:"
    INDEX 01 00:50:33
  TRACK 32 AUDIO
    TITLE "3:cjc039_3816"
    INDEX 01 00:51:11
  TRACK 33 AUDIO
    TITLE "0:"
    INDEX 01 00:54:05
  TRACK 34 AUDIO
    TITLE "2:cjc039_3817"
    INDEX 01 00:55:55
  TRACK 35 AUDIO
    TITLE "0:"
    INDEX 01 00:56:65
  TRACK 36 AUDIO
    TITLE "3:cjc039_3818"
    INDEX 01 00:57:45
  TRACK 37 AUDIO
    TITLE "0:"
    INDEX 01 01:00:62
  TRACK 38 AUDIO
    TITLE "2:cjc039_3819"
    INDEX 01 01:02:38
  TRACK 39 AUDIO
    TITLE "0:"
    INDEX 01 01:03:59
  TRACK 40 AUDIO
    TITLE "3:cjc039_3820"
    INDEX 01 01:04:35
  TRACK 41 AUDIO
    TITLE "0:"
    INDEX 01 01:07:45
  TRACK 42 AUDIO
    TITLE "2:cjc039_3821"
    INDEX 01 01:09:18
  TRACK 43 AUDIO
    TITLE "0:"
    INDEX 01 01:10:30
  TRACK 44 AUDIO
    TITLE "3:cjc039_3822"
    INDEX 01 01:11:11
  TRACK 45 AUDIO
    TITLE "0:"
    INDEX 01 01:14:29
  TRACK 46 AUDIO
    TITLE "2:cjc039_3823"
    INDEX 01 01:16:05
  TRACK 47 AUDIO
    TITLE "0:"
    INDEX 01 01:17:28
  TRACK 48 AUDIO
    TITLE "3:cjc039_3824"
    INDEX 01 01:18:06
  TRACK 49 AUDIO
    TITLE "0:"
    INDEX 01 01:21:12
  TRACK 50 AUDIO
    TITLE "2:cjc039_3825"
    INDEX 01 01:22:64
  TRACK 51 AUDIO
    TITLE "0:"
    INDEX 01 01:23:65
  TRACK 52 AUDIO
    TITLE "3:cjc039_3826"
    INDEX 01 01:24:43
  TRACK 53 AUDIO
    TITLE "0:"
    INDEX 01 01:27:14
  TRACK 54 AUDIO
    TITLE "2:cjc039_3827"
    INDEX 01 01:28:63
  TRACK 55 AUDIO
    TITLE "0:"
    INDEX 01 01:30:07
  TRACK 56 AUDIO
    TITLE "3:cjc039_3828"
    INDEX 01 01:30:56
  TRACK 57 AUDIO
    TITLE "0:"
    INDEX 01 01:33:72
  TRACK 58 AUDIO
    TITLE "2:cjc039_3829"
    INDEX 01 01:35:41
  TRACK 59 AUDIO
    TITLE "0:"
    INDEX 01 01:36:68
  TRACK 60 AUDIO
    TITLE "3:cjc039_3830"
    INDEX 01 01:37:48
  TRACK 61 AUDIO
    TITLE "0:"
    INDEX 01 01:40:29
  TRACK 62 AUDIO
    TITLE "2:cjc039_3831"
    INDEX 01 01:42:08
  TRACK 63 AUDIO
    TITLE "0:"
    INDEX 01 01:43:51
  TRACK 64 AUDIO
    TITLE "3:cjc039_3832"
    INDEX 01 01:44:28
  TRACK 65 AUDIO
    TITLE "0:"
    INDEX 01 01:48:14
  TRACK 66 AUDIO
    TITLE "2:cjc039_3833"
    INDEX 01 01:49:55
  TRACK 67 AUDIO
    TITLE "0:"
    INDEX 01 01:50:53
  TRACK 68 AUDIO
    TITLE "3:cjc039_3834"
    INDEX 01 01:51:34
  TRACK 69 AUDIO
    TITLE "0:"
    INDEX 01 01:55:52
  TRACK 70 AUDIO
    TITLE "2:cjc039_3835"
    INDEX 01 01:57:27
  TRACK 71 AUDIO
    TITLE "0:"
    INDEX 01 01:58:48
  TRACK 72 AUDIO
    TITLE "3:cjc039_3836"
    INDEX 01 01:59:26
  TRACK 73 AUDIO
    TITLE "0:"
    INDEX 01 02:02:32
  TRACK 74 AUDIO
    TITLE "2:cjc039_3837"
    INDEX 01 02:04:10
  TRACK 75 AUDIO
    TITLE "0:"
    INDEX 01 02:05:05
  TRACK 76 AUDIO
    TITLE "3:cjc039_3838"
    INDEX 01 02:05:62
  TRACK 77 AUDIO
    TITLE "0:"
    INDEX 01 02:08:56
  TRACK 78 AUDIO
    TITLE "2:cjc039_3839"
    INDEX 01 02:10:36
  TRACK 79 AUDIO
    TITLE "0:"
    INDEX 01 02:11:68
  TRACK 80 AUDIO
    TITLE "3:cjc039_3840"
    INDEX 01 02:12:46
  TRACK 81 AUDIO
    TITLE "0:"
    INDEX 01 02:16:15
